<?xml version="1.0" encoding="utf-8"?>
<!-- Generator: Adobe Illustrator 19.1.0, SVG Export Plug-In . SVG Version: 6.00 Build 0)  -->
<svg version="1.1" id="Layer_1" xmlns="http://www.w3.org/2000/svg" xmlns:xlink="http://www.w3.org/1999/xlink" x="0px" y="0px"
	 width="1000px" height="1000px" viewBox="0 0 1000 1000" style="enable-background:new 0 0 1000 1000;" xml:space="preserve">
<style type="text/css">
	.st0{fill:#FA9DDB;}
</style>
<path class="st0" d="M202.1,373.9c-45.4-40.1-60.3-133.5-12.7-205.4c2.7-4.1,5.2-8.2,7.8-12.4c20.4-32.5,56.1-51.6,88.5-45.7
	c39,7,52.5,56,28.5,103.2c-4.7,9.2-20.4,22.2-27.6,27.3c-13.6,9.8-20.2,30.1-20.2,96.4c0,37-1.8,76.4-4,87.5l-1.2,13.1
	c-0.3,3.7-5.6,5-7.7,2l-16.7-24.5C225,399,209.3,380.3,202.1,373.9L202.1,373.9z M721.9,852.1c57.9-63,74.2-71.7,134.1-71
	c87,1,88.7-42,2.4-58c-82.2-15.2-104-9.4-195.6,51.8C560,843.7,543.2,845.8,370.3,813c-140.6-26.7-143.4-26.5-203,12.3
	c-68.4,44.5-61.7,68.1,9.4,32.7c63.2-31.5,133.4-20.4,240.5,38C542.6,964.5,630.4,951.8,721.9,852.1L721.9,852.1z M617.9,766
	c42.9-41.4,96.4-198.2,83.7-244.9c-9.6-35-19.7-31.3-52.3,19.4c-14.8,23-58.5,54.7-97.2,70.5c-134.5,55-176.6,159.7-77.7,193.2
	C534.1,824.5,566.1,816,617.9,766L617.9,766z M390.1,706.7c-1.3-4.8-2.5-9.9-3.6-15.2c-11.1-55.7-2.5-113.4,23.3-164.6
	c21.8-43.2,11.6-49.6-22.4-64.3c-17.9-7.7-34.5-17.9-49.6-29.9c-17.6-14.1-27.2-13.9-40.6,13.6c-20.4,41,5.8,182,47.9,265.2
	C387.3,794.9,413.5,790.3,390.1,706.7L390.1,706.7z M852.9,667.9c59.2-34.3,84.6-93.6,80.4-188.3c-2.2-51.1,7.7-116.2,22.1-144.6
	c28.6-56.4,22-61.4-30.7-23.2c-19.1,13.8-60.6,27.9-92.4,31.4c-47,5.1-61.1,16.2-76.2,59.7c-10.2,29.4-16.1,67.8-13.3,85.3
	c2.8,17.5-7.7,70.1-23.3,116.8c-15.7,46.7-23.8,88.3-18,92.4C717.5,708.7,815.6,689.6,852.9,667.9L852.9,667.9z M464.9,635.4
	c11.7-20.9,60.4-60.8,108.2-88.5c47.8-27.7,99.9-66.9,115.8-87.1c25.3-32.1,24.7-45.3-4.9-106.2c-39.3-81.2-86.3-98.8-67.4-25.3
	c17.1,66.5-5.5,106.3-82.9,146.3c-74.9,38.7-105.5,83.3-105.6,153.8C428,685.6,436,687.1,464.9,635.4z M311.2,699.5
	c-17.2-27.5-37.3-92.6-44.5-144.6c-16.6-118.6-69.6-180.1-158.9-184.5c-85.9-4.2-113.9,16.8-60.9,54.6
	c34.9,24.9,42.9,50.9,43.4,141.1c0.3,60.8,4.3,111.7,12.9,123.8c28.9,40.8,205.2,88.4,221.6,74.6C334.5,756.2,328.4,727,311.2,699.5
	L311.2,699.5z M437,451.2c4.7-5.7-2.3-42.7-15.6-82.2c-21.4-63.7-18.8-76.2,22.9-109.9c59.3-47.9,42.3-64.8-49-48.9
	c-55.8,9.7-72.7,21.1-83.5,64.7c-4.9,19.8-11.1,39.3-18.9,58.3c-4.3,10.3-4.5,17-4.3,22.7C290.1,391.1,430.1,459.6,437,451.2
	L437,451.2z M736.2,300.3c-11.8-92-13.9-94.9-111.3-156l-88.6-55.6c-6.5-4.1-14.9-4.3-21.6-0.5l-63,35.2
	c-87,48.7-83.3,78.9,7.5,61.6c54-10.3,67.7-5.9,86.7,27.7c15.4,27.2,36.1,38.2,64.8,34.5c33.6-4.4,52,10.1,89.8,70.7l39.3,62.9
	c1.9,3,6.8,1.4,6.3-2L736.2,300.3L736.2,300.3z M594.9,349.8L594.9,349.8c-0.9,3.1-5.5,3-6.2-0.1l0,0c-3.5-14.9-14.4-29.8-30.4-41.7
	c1.7,6.7,0.9,13.5-2.4,19.6c-4.8,9-14.4,15.6-26.5,18.1c-9.2,1.9-19.1,1.4-28.5-1.4l-4.1-1.3c7.7,7.6,18.5,13.3,30.7,16
	c5.1,1.1,10.2,1.7,15.4,1.8l7.7,0.1c2.2,0,2.7,3,0.6,3.6l-7.3,2.2c-6.8,2.1-14,3.1-21.3,3.1c-5.8,0-11.6-0.6-17.4-1.9
	c-18.1-4.1-33.2-14-41.6-27.3c-6.3-10.1-8.1-21.5-5.1-32c2.1-7.2,6.3-13.7,12.2-19c-6.6,2.5-12,6.3-16.1,11.1
	c-2.9,3.4-4.9,7.3-6.1,11.6l-0.9,3.3c-0.6,2.2-3.9,2.1-4.4-0.1l-0.8-3.4c-3.2-13.6-0.7-25.9,7.4-35.5c19.6-23.4,66.4-23,104.3,0.8
	C584.8,296.5,601.5,326.3,594.9,349.8z M502,338.4c3.6,0.1,7.2-0.3,10.6-1c10.2-2.2,18.3-7.6,22.2-15c3.3-6.2,3.4-13.4,0.2-20.3
	c-1.9-4-4.8-7.8-8.8-11.1c-4.2-1.4-8.4-2.6-12.6-3.5c-7.6-1.6-15.7,0.7-20.7,6.4c-3.5,3.9-6,8.4-7.4,13.2
	c-2.6,9.1-1.1,18.6,4.4,27.4c0.8,1.3,1.7,2.5,2.6,3.7L502,338.4z M576.3,355.9c-1.4-1.9-4.5-1.2-4.8,1.1l-0.2,1.4
	c-0.8,6.2-3.2,11.7-7.1,16.5c-17.6,21-60.5,20.1-95.8-2.1c-11.4-7.2-21.1-16.1-28-25.7l0,0c-1.7-2.3-5.5-1.4-5.8,1.3l0,0
	c-2.8,22.8,13.7,49,41.9,66.8c19.2,12,40.7,18.1,59.7,18.1c18.6,0,34.9-5.8,44.6-17.3c12.8-15.3,11.4-37.9-3.7-59L576.3,355.9z"/>
</svg>
